<svg width="28" height="37" viewBox="0 0 28 37" fill="none" xmlns="http://www.w3.org/2000/svg">
<g clip-path="url(#clip0)">
<path d="M25.4824 0.873474C25.6621 1.02659 25.7648 1.25626 25.8418 1.48594C26.5606 3.70611 27.1253 5.95181 27.3563 8.24854C27.5104 9.85625 27.5104 11.464 26.997 13.0462C26.0985 15.7257 23.4031 17.3079 20.6051 16.772C20.3227 16.7209 20.22 16.7975 20.1174 17.0272C19.0392 19.7577 17.9611 22.4883 16.8829 25.2188C16.0871 27.2859 15.7278 29.404 15.7278 31.6242C15.7278 32.9001 15.7278 34.1506 15.7278 35.4265C15.7278 35.6052 15.7278 35.8093 15.6764 35.9624C15.5737 36.2176 15.3941 36.3452 15.1117 36.3197C14.8293 36.2942 14.6753 36.1156 14.6239 35.8604C14.5983 35.7838 14.6239 35.7073 14.6239 35.6307C14.5983 33.7168 14.5726 31.8028 14.5726 29.8889C14.5726 28.0515 13.9822 26.3927 12.8784 24.9381C12.1853 24.0194 11.4922 23.1263 10.7734 22.2076C10.6707 22.08 10.5681 21.9779 10.3884 22.08C7.56466 23.5601 4.07352 22.5138 2.58466 19.4005C1.9429 18.0479 1.58352 16.6189 1.35249 15.1643C1.01878 13.3014 0.941769 11.4129 0.967439 9.49898C0.967439 9.21827 0.993109 8.93756 1.01878 8.68237C1.04445 8.1975 1.32682 7.96783 1.81455 8.12094C2.94404 8.42717 4.02218 8.80996 5.10033 9.24379C6.8459 9.95833 8.5658 10.7749 10.0803 11.8978C11.2355 12.7654 12.288 13.7097 12.8527 15.0877C13.4431 16.5423 13.4431 17.9969 12.827 19.426C12.673 19.8088 12.3906 19.9364 12.0826 19.8088C11.7489 19.6812 11.6462 19.4005 11.8002 18.9921C12.0056 18.4818 12.1339 17.9714 12.1596 17.41C12.2366 15.8278 11.5179 14.5773 10.3627 13.5565C8.66848 12.0509 6.66621 11.0812 4.56126 10.239C3.84249 9.95833 3.09806 9.70314 2.3793 9.44794C2.17393 9.37139 2.09692 9.39691 2.09692 9.6521C2.07125 12.1785 2.1996 14.6794 2.86703 17.1292C3.20074 18.2776 3.63713 19.3749 4.45858 20.2681C5.69074 21.5951 7.89837 22.0289 9.54126 21.2378C9.82363 21.1102 9.79796 21.0082 9.64394 20.7785C8.51446 19.3239 7.38497 17.8438 6.25549 16.3892C6.20414 16.3126 6.1528 16.2616 6.10146 16.185C5.92177 15.9043 5.97311 15.5726 6.20414 15.3939C6.46085 15.1898 6.76889 15.2408 6.99992 15.5215C7.48765 16.134 7.97538 16.772 8.46312 17.41C10.26 19.7322 12.0313 22.08 13.8282 24.4022C14.3929 25.1168 14.778 25.9334 15.086 26.7755C15.1117 26.75 15.163 26.75 15.163 26.75C15.8818 24.2491 16.9599 21.8758 17.9097 19.477C19.1676 16.2871 20.4254 13.0972 21.6832 9.90729C21.7346 9.77969 21.7859 9.6521 21.8373 9.5245C21.9913 9.21827 22.2736 9.09067 22.556 9.19275C22.8641 9.29483 23.0181 9.60106 22.8897 9.93281C22.5817 10.7749 22.2223 11.6171 21.8886 12.4337C21.5035 13.3779 21.1442 14.3476 20.7334 15.2919C20.6051 15.5981 20.7334 15.6746 20.9901 15.7257C22.9411 16.0064 24.969 14.8835 25.7391 13.0717C26.0728 12.3061 26.2012 11.4895 26.2525 10.6729C26.3552 8.70789 26.0472 6.76842 25.5851 4.85448C25.4054 4.0889 25.2 3.32332 24.969 2.55774C24.9177 2.35359 24.8407 2.27703 24.6353 2.43015C22.325 4.03786 20.1174 5.74765 18.4488 8.04438C17.8584 8.861 17.3707 9.75418 17.2423 10.8005C17.0883 11.9743 17.3963 13.0206 18.0637 13.9649C18.1664 14.118 18.3204 14.2711 18.2691 14.5008C18.2178 14.7304 18.0894 14.9091 17.8584 14.9856C17.6017 15.0622 17.3963 14.9601 17.2423 14.7559C16.6776 14.0669 16.3182 13.2503 16.1642 12.3827C15.8818 10.9025 16.2155 9.5245 16.9856 8.22302C17.9097 6.66634 19.1419 5.39038 20.4767 4.2165C21.8886 2.99157 23.3775 1.89424 24.969 0.898993C25.1744 0.873474 25.3284 0.873474 25.4824 0.873474Z" fill="black"/>
</g>
<defs>
<clipPath id="clip0">
<rect width="26.4916" height="35.4718" fill="white" transform="translate(0.96875 0.873474)"/>
</clipPath>
</defs>
</svg>
