<?xml version="1.0" encoding="UTF-8"?>
<!DOCTYPE svg PUBLIC "-//W3C//DTD SVG 1.1//EN" "http://www.w3.org/Graphics/SVG/1.1/DTD/svg11.dtd">
<!-- Creator: CorelDRAW 2018 (64-Bit) -->
<svg xmlns="http://www.w3.org/2000/svg" xml:space="preserve" width="12mm" height="10mm" version="1.1" style="shape-rendering:geometricPrecision; text-rendering:geometricPrecision; image-rendering:optimizeQuality; fill-rule:evenodd; clip-rule:evenodd"
viewBox="0 0 12 10"
 xmlns:xlink="http://www.w3.org/1999/xlink">
 <defs>
  <style type="text/css">
   <![CDATA[
    .fil0 {fill:#45562A;fill-rule:nonzero}
   ]]>
  </style>
 </defs>
 <g id="Слой_x0020_1">
  <metadata id="CorelCorpID_0Corel-Layer"/>
  <g id="_1893472350736">
   <path class="fil0" d="M7.5039 1.9569c0.0284,0.0589 0.0037,0.1298 -0.0552,0.1582 -0.0589,0.0284 -0.1298,0.0037 -0.1582,-0.0552 -0.0571,-0.1179 -0.1092,-0.2386 -0.1542,-0.3621 -0.0452,-0.1236 -0.0837,-0.2509 -0.1135,-0.3818l-0.0017 -0.0094c-0.0181,-0.0915 -0.0317,-0.188 -0.0339,-0.2878 -0.0024,-0.1045 0.0074,-0.2121 0.037,-0.3202 0.0333,-0.1216 0.1011,-0.2271 0.1916,-0.3017 0.0904,-0.0744 0.203,-0.1186 0.3263,-0.1186 0.1095,0 0.2072,0.0323 0.2958,0.0804 0.0814,0.0443 0.153,0.1012 0.2191,0.1576 0.4529,0.3792 0.8318,0.8369 1.1169,1.3464l0.0037 0.0071c0.2793,0.5014 0.4685,1.0533 0.5487,1.6306 0.0089,0.0648 -0.0364,0.1247 -0.1012,0.1336 -0.0648,0.0089 -0.1247,-0.0364 -0.1336,-0.1012 -0.0761,-0.548 -0.2557,-1.0719 -0.5209,-1.548l-0.0037 -0.0061c-0.2711,-0.4845 -0.6314,-0.9198 -1.062,-1.2805l-0.0009 -0.001c-0.0565,-0.0482 -0.1165,-0.0963 -0.1793,-0.1305 -0.0559,-0.0303 -0.1166,-0.0508 -0.1826,-0.0508 -0.0666,0 -0.1273,0.0238 -0.1759,0.0638 -0.0531,0.0438 -0.0934,0.1072 -0.1136,0.1811 -0.0231,0.0843 -0.0307,0.1697 -0.0288,0.2534 0.0019,0.0837 0.0137,0.1667 0.0293,0.2462l0.0009 0.0036c0.0273,0.1202 0.063,0.2379 0.1051,0.353 0.0421,0.1156 0.0911,0.2289 0.1448,0.3399z"/>
   <path class="fil0" d="M9.7699 7.5131c-0.0627,0.0181 -0.1285,-0.0181 -0.1466,-0.0808 -0.0181,-0.0627 0.0181,-0.1285 0.0808,-0.1466l0.1047 -0.0268c0.1082,-0.0263 0.2602,-0.0635 0.4085,-0.1251l0.094 -0.0383c0.0753,-0.0318 0.1551,-0.0656 0.2327,-0.085 0.2055,-0.0516 0.39,-0.022 0.4648,0.2704 0.0226,0.0791 0.023,0.1622 0.0094,0.2441 -0.0126,0.0758 -0.0373,0.15 -0.0663,0.2182 -0.0363,0.0895 -0.1113,0.2192 -0.1914,0.3288 -0.072,0.0985 -0.1525,0.1852 -0.2218,0.2222 -0.0576,0.0307 -0.1294,0.0089 -0.1601,-0.0487 -0.0307,-0.0576 -0.0089,-0.1294 0.0487,-0.1601 0.0346,-0.0185 0.088,-0.0798 0.142,-0.1536 0.0689,-0.0942 0.1326,-0.2038 0.1627,-0.2778l0.0009 -0.0018c0.023,-0.0537 0.0423,-0.1107 0.0515,-0.1657 0.0081,-0.0491 0.0084,-0.0974 -0.0039,-0.1406l-0.0009 -0.0037c-0.0277,-0.1106 -0.0987,-0.1214 -0.178,-0.1015 -0.0633,0.0158 -0.1329,0.0453 -0.1985,0.073l-0.0948 0.0391c-0.1633,0.0678 -0.3273,0.1079 -0.4439,0.1363l-0.0945 0.024z"/>
   <path class="fil0" d="M1.96 6.8743c0.0587,0.0292 0.0826,0.1005 0.0534,0.1592 -0.0292,0.0587 -0.1005,0.0826 -0.1592,0.0534 -0.0808,-0.0402 -0.2253,-0.0238 -0.3739,-0.0069l-0.0035 0.0003c-0.1557,0.0178 -0.3154,0.0356 -0.459,-0.0023l-0.0461 -0.012c-0.0962,-0.0247 -0.1977,-0.0487 -0.245,-0.0014 -0.017,0.017 -0.0285,0.0398 -0.0349,0.0653 -0.0081,0.0325 -0.0084,0.0696 -0.0025,0.1076 0.0276,0.1367 0.1005,0.256 0.199,0.3569 0.1219,0.1245 0.2834,0.2222 0.4503,0.2923l0.0011 0.0005c0.0574,0.0206 0.1181,0.0394 0.1793,0.0525 0.0612,0.0131 0.1226,0.0206 0.1808,0.0186 0.0653,-0.0023 0.1202,0.0488 0.1225,0.1141 0.0023,0.0653 -0.0488,0.1202 -0.1141,0.1225 -0.0806,0.0029 -0.1609,-0.0066 -0.2384,-0.0232 -0.0724,-0.0155 -0.1436,-0.0375 -0.2104,-0.0615l-0.0126 -0.0045c-0.1928,-0.081 -0.3815,-0.1961 -0.5275,-0.3451 -0.1297,-0.1327 -0.2257,-0.2915 -0.2628,-0.4767l-0.0004 -0.0037c-0.0118,-0.0704 -0.011,-0.142 0.0055,-0.2079 0.0165,-0.0654 0.0482,-0.126 0.0981,-0.1757 0.1409,-0.1407 0.3115,-0.1006 0.4709,-0.0597 0.0106,0.0022 0.0395,0.0081 0.0465,0.0116 0.1005,0.0267 0.2382,0.0114 0.3727,-0.0039l0.0035 -0.0004c0.1843,-0.021 0.3634,-0.0413 0.5067,0.0301z"/>
   <path class="fil0" d="M9.906 6.7592c0.2208,-0.0508 0.4376,-0.1147 0.6457,-0.1994 0.2065,-0.084 0.4047,-0.1891 0.5894,-0.3231l0.0072 -0.0048c0.1409,-0.0971 0.2764,-0.2173 0.3748,-0.3542 0.0797,-0.1107 0.1353,-0.2329 0.1489,-0.3624l0.0002 -0.0018c0.0227,-0.1907 -0.0364,-0.377 -0.1363,-0.551 -0.1054,-0.1835 -0.2569,-0.3552 -0.4087,-0.5067 -0.1386,-0.1382 -0.277,-0.272 -0.4218,-0.391 -0.142,-0.1165 -0.2929,-0.221 -0.4605,-0.3046 -0.1558,-0.0777 -0.3356,-0.1134 -0.5157,-0.1107 -0.1866,0.0028 -0.3741,0.047 -0.537,0.1282 -0.0576,0.0287 -0.1273,0.0062 -0.1575,-0.0501 -0.3316,-0.541 -0.777,-1.0067 -1.2941,-1.3719 -0.5244,-0.3703 -1.1228,-0.6373 -1.7511,-0.7746l-0.0063 -0.0016c-0.0685,-0.0168 -0.1405,-0.0292 -0.2101,-0.032 -0.0576,-0.0022 -0.1151,0.0019 -0.1684,0.0151 -0.0528,0.0133 -0.1058,0.0438 -0.1436,0.0839 -0.0285,0.0302 -0.0473,0.065 -0.0473,0.0988 0,0.0347 0.0034,0.0654 0.01,0.0935 0.0066,0.028 0.0166,0.0546 0.0297,0.0807l0.0046 0.0102c0.2349,0.599 0.5848,1.1586 1.0224,1.6337 0.4245,0.4609 0.932,0.8426 1.4973,1.1034 0.0594,0.0274 0.0854,0.098 0.058,0.1574 -0.0049,0.0106 -0.0112,0.0202 -0.0185,0.0285 -0.0524,0.0681 -0.0939,0.1401 -0.1241,0.2155 -0.0309,0.077 -0.0503,0.1579 -0.0579,0.2423 -0.0059,0.0651 -0.0635,0.1131 -0.1286,0.1072 -0.0115,-0.001 -0.0224,-0.0037 -0.0326,-0.0077 -0.4527,-0.1519 -0.836,-0.4356 -1.2145,-0.7158l-0.0942 -0.0697c-0.25,-0.1806 -0.5086,-0.3568 -0.7786,-0.5055 -0.2655,-0.1461 -0.541,-0.2648 -0.8277,-0.332l-0.012 -0.0035c-0.3064,-0.0773 -0.6395,-0.0998 -0.9537,-0.0486 -0.2686,0.0437 -0.5232,0.1421 -0.7339,0.3068 -0.0088,0.0091 -0.0193,0.0174 -0.0315,0.0249 -0.0504,0.035 -0.1201,0.0258 -0.1596,-0.0224 -0.0302,-0.0369 -0.0344,-0.0866 -0.015,-0.127 -0.0935,-0.1399 -0.1887,-0.2782 -0.3322,-0.3496 -0.0672,-0.0335 -0.1455,-0.0476 -0.2244,-0.0453 -0.0859,0.0026 -0.1732,0.025 -0.249,0.0628 -0.0724,0.036 -0.138,0.0906 -0.1908,0.1558 -0.0538,0.0664 -0.0947,0.1439 -0.1166,0.2242 -0.0024,0.009 -0.0059,0.0175 -0.0102,0.0254 -0.0117,0.0244 -0.0205,0.0523 -0.0247,0.0818 -0.0036,0.0259 -0.0038,0.0525 0.0006,0.0781 0.0078,0.0306 0.0154,0.0571 0.0244,0.0807l0.0022 0.0063c0.0073,0.0177 0.016,0.0346 0.027,0.051l0.0095 0.0172c0.0349,0.0675 0.0884,0.1235 0.151,0.1717 0.0679,0.0523 0.1501,0.0971 0.2329,0.1384 0.0587,0.0292 0.0826,0.1005 0.0534,0.1592 -0.0095,0.019 -0.0234,0.0344 -0.0398,0.0455 -0.2106,0.1675 -0.346,0.4051 -0.4108,0.6666 -0.0718,0.2897 -0.0577,0.6085 0.0358,0.8966l0.0016 0.0054c0.0348,0.1031 0.0804,0.2096 0.1256,0.3154 0.1377,0.3226 0.2736,0.6407 0.1729,0.9893 -0.0767,0.2914 -0.2753,0.4882 -0.4741,0.6853 -0.0507,0.0503 -0.1012,0.1003 -0.1487,0.1512 -0.0704,0.0792 -0.1404,0.1763 -0.1692,0.2713 -0.0181,0.0596 -0.0193,0.1191 0.0091,0.1712l0.0035 0.007c0.0266,0.0502 0.0774,0.0791 0.1373,0.0948 0.0768,0.0201 0.1685,0.0197 0.2536,0.012l0.0037 -0.0003c0.7728,-0.0483 1.4673,-0.4719 2.1422,-0.8835l0.1027 -0.0626c0.0558,-0.034 0.1289,-0.0163 0.1629,0.0395l0.0029 0.0051c0.2131,0.3549 0.5314,0.639 0.8798,0.8498 0.4195,0.2537 0.8801,0.4003 1.255,0.4371 0.4433,0.0365 0.9564,-0.0014 1.4357,-0.1435 0.4016,-0.1191 0.7792,-0.3114 1.0701,-0.5939 0.0401,-0.039 0.1009,-0.0438 0.1462,-0.015 0.2675,0.1525 0.567,0.2297 0.867,0.2353 0.308,0.0058 0.6166,-0.0639 0.8913,-0.2046 0.0379,-0.0226 0.0757,-0.0455 0.103,-0.0697 0.0217,-0.0196 0.0397,-0.0416 0.0499,-0.0687 0.009,-0.0318 0.0038,-0.0678 -0.012,-0.1011 -0.0182,-0.0384 -0.0499,-0.073 -0.0904,-0.096l-0.0069 -0.0042c-0.0811,-0.054 -0.2067,-0.0701 -0.3324,-0.0857l-0.0163 -0.0027c-0.1587,-0.0268 -0.313,-0.0664 -0.4607,-0.1164 -0.1568,-0.0532 -0.306,-0.1181 -0.4448,-0.1919 -0.0401,-0.0213 -0.063,-0.0624 -0.0631,-0.1049l0.0001 -0.003c0.0004,-0.0179 0.0049,-0.0359 0.0138,-0.0527l0.0014 -0.0025c0.0111,-0.0285 0.0278,-0.0647 0.0485,-0.1093 0.096,-0.2068 0.298,-0.6418 0.3612,-0.8943 0.0115,-0.0459 0.0483,-0.0788 0.0919,-0.0876zm0.7349 0.0206c-0.1991,0.081 -0.4057,0.144 -0.6161,0.1951 -0.0825,0.2753 -0.2656,0.6696 -0.3565,0.8656l-0.0065 0.013c0.0999,0.0481 0.2041,0.0909 0.3114,0.1273 0.1364,0.0462 0.2786,0.0827 0.4241,0.1073l0.0028 0.0003c0.153,0.0191 0.3061,0.0382 0.4342,0.1223 0.0817,0.0475 0.146,0.1188 0.1838,0.1985 0.0397,0.0837 0.0515,0.1782 0.0259,0.2673l-0.0019 0.0051c-0.0253,0.0756 -0.0682,0.1312 -0.1195,0.1763 -0.0449,0.039 -0.092,0.0676 -0.1389,0.0956l-0.0103 0.006c-0.31,0.1593 -0.6582,0.2381 -1.0057,0.2316 -0.3122,-0.0058 -0.6244,-0.0804 -0.9083,-0.2272 -0.3107,0.2789 -0.6971,0.4709 -1.1044,0.5916 -0.5092,0.151 -1.053,0.1913 -1.5219,0.1524l-0.0014 -0.0004c-0.4077,-0.0396 -0.9064,-0.1974 -1.3568,-0.4698 -0.3467,-0.2097 -0.667,-0.4883 -0.899,-0.8346l-0.0033 0.002c-0.6996,0.4267 -1.4194,0.8657 -2.2516,0.9176 -0.1069,0.0094 -0.2247,0.0087 -0.3307,-0.019 -0.1212,-0.0316 -0.2264,-0.0966 -0.2884,-0.216l-0.001 -0.0018c-0.0628,-0.115 -0.0629,-0.2363 -0.0275,-0.353 0.0409,-0.1348 0.1301,-0.2612 0.2185,-0.3604l0.0018 -0.0018c0.0511,-0.0549 0.1043,-0.1077 0.1574,-0.1602 0.1757,-0.1741 0.3513,-0.3482 0.4116,-0.5772l0.0009 -0.0027c0.0785,-0.2683 -0.0414,-0.5489 -0.1629,-0.8334 -0.0464,-0.1087 -0.0934,-0.2182 -0.132,-0.3329l-0.0026 -0.0073c-0.1068,-0.3291 -0.1228,-0.6941 -0.0404,-1.0266 0.0636,-0.2566 0.186,-0.4948 0.3705,-0.684 -0.0414,-0.0248 -0.0819,-0.0518 -0.1208,-0.0817 -0.0873,-0.0672 -0.1631,-0.1479 -0.2159,-0.2497 -0.0192,-0.0295 -0.0343,-0.0592 -0.047,-0.0906l-0.0038 -0.0089c-0.0127,-0.0333 -0.0229,-0.0683 -0.0327,-0.1075l-0.0009 -0.0056c-0.0112,-0.056 -0.0118,-0.1115 -0.0044,-0.1635 0.0073,-0.0517 0.0231,-0.1016 0.0443,-0.1466 0.0313,-0.1087 0.0865,-0.2124 0.1582,-0.3008 0.074,-0.0914 0.1664,-0.168 0.2688,-0.219 0.1047,-0.0522 0.2267,-0.0831 0.3484,-0.0868 0.1168,-0.0034 0.2339,0.018 0.3366,0.0693 0.1908,0.0951 0.3032,0.2515 0.4106,0.4116 0.2159,-0.1379 0.4617,-0.2238 0.7178,-0.2655 0.3467,-0.0565 0.7135,-0.0318 1.05,0.0532l0.0075 0.0015c0.3099,0.0727 0.6052,0.1995 0.8881,0.3552 0.2774,0.1527 0.5445,0.3349 0.8027,0.5213l0.0969 0.0717c0.3267,0.2418 0.6572,0.4865 1.0228,0.635 0.0125,-0.0544 0.0292,-0.1074 0.0498,-0.159 0.0217,-0.0543 0.0481,-0.1071 0.0789,-0.1584 -0.5435,-0.2711 -1.0325,-0.6486 -1.446,-1.0976 -0.4563,-0.4954 -0.8214,-1.0787 -1.067,-1.7032 -0.0205,-0.0417 -0.0361,-0.0839 -0.0465,-0.1282 -0.0109,-0.0462 -0.0164,-0.0945 -0.0164,-0.1473 0,-0.0989 0.0446,-0.1894 0.1123,-0.2612 0.0688,-0.0729 0.164,-0.1279 0.2586,-0.1516 0.0761,-0.0188 0.1558,-0.0247 0.2352,-0.0216 0.0891,0.0035 0.177,0.0183 0.258,0.0383 0.6593,0.1442 1.2869,0.4243 1.8367,0.8125 0.5164,0.3647 0.9651,0.8255 1.3078,1.3591 0.1689,-0.0681 0.3554,-0.1051 0.5416,-0.1079 0.2172,-0.0032 0.4347,0.0402 0.6243,0.1347 0.1832,0.0914 0.3488,0.2061 0.5051,0.3344 0.1534,0.126 0.2962,0.264 0.4384,0.4058 0.1639,0.1636 0.3286,0.3509 0.4469,0.5569 0.1237,0.2154 0.1963,0.4499 0.1667,0.6966 -0.0188,0.1734 -0.0904,0.3328 -0.1925,0.4746 -0.1161,0.1615 -0.272,0.3005 -0.4327,0.4113l-0.0023 0.0017c-0.2013,0.1461 -0.4161,0.2601 -0.6394,0.3509z"/>
   <path class="fil0" d="M10.0028 5.1124c0.0259,0.0602 -0.002,0.1301 -0.0622,0.156 -0.0602,0.0259 -0.1301,-0.002 -0.156,-0.0622 -0.0367,-0.0856 -0.0429,-0.1778 -0.0213,-0.2638 0.0207,-0.0825 0.0675,-0.1596 0.1369,-0.2192 0.0612,-0.06 0.1453,-0.1016 0.2339,-0.1184 0.0864,-0.0164 0.1795,-0.0098 0.2621,0.0255 0.0602,0.0256 0.0883,0.0953 0.0627,0.1555 -0.0256,0.0602 -0.0953,0.0883 -0.1555,0.0627 -0.0378,-0.0162 -0.0827,-0.0188 -0.1257,-0.0107 -0.0443,0.0083 -0.0851,0.028 -0.1127,0.0556l-0.0079 0.007c-0.0324,0.0269 -0.0542,0.0621 -0.0636,0.0996 -0.0091,0.0363 -0.0064,0.0758 0.0093,0.1124z"/>
   <path class="fil0" d="M11.6261 5.2267l-0.0535 0.0131c-0.0541,0.0134 -0.1083,0.0271 -0.1671,0.0368l-0.0052 0.0007 0.0089 0.0314c0.0243,0.0559 0.061,0.1194 0.1061,0.1591 0.0219,0.0193 0.0455,0.0316 0.0673,0.0289 0.0177,-0.0044 0.0338,-0.0165 0.0474,-0.0326 0.0198,-0.0233 0.0339,-0.0538 0.0408,-0.0853 -0.0026,-0.0398 -0.023,-0.0949 -0.0447,-0.1521zm-0.1101 -0.2171c0.0546,-0.0135 0.1093,-0.0272 0.1667,-0.0368 0.0565,-0.0094 0.1131,0.0233 0.1318,0.0793l0.0302 0.082c0.0325,0.0859 0.064,0.1687 0.064,0.253l-0.0019 0.0195c-0.0126,0.0756 -0.0457,0.1518 -0.0958,0.2107 -0.0466,0.0553 -0.1084,0.0966 -0.183,0.112l-0.0166 0.0032c-0.0985,0.0122 -0.1832,-0.0252 -0.2529,-0.0865 -0.076,-0.0669 -0.1332,-0.1646 -0.1688,-0.2475l-0.0032 -0.0088c-0.0113,-0.0336 -0.0227,-0.0739 -0.0258,-0.1141 -0.0043,-0.0553 0.0061,-0.1096 0.0446,-0.1542l0.0095 -0.0107c0.0196,-0.0196 0.0484,-0.0386 0.0804,-0.0514 0.0257,-0.01 0.0538,-0.017 0.0822,-0.0182 0.0435,-0.0077 0.0912,-0.0197 0.1386,-0.0315z"/>
   <path class="fil0" d="M1.3185 2.4637c0.0381,0.0532 0.0258,0.1275 -0.0274,0.1656 -0.0532,0.0381 -0.1275,0.0258 -0.1656,-0.0274l-0.2631 -0.3674c-0.0381,-0.0532 -0.0258,-0.1275 0.0274,-0.1656 0.0532,-0.0381 0.1275,-0.0258 0.1656,0.0274l0.2631 0.3674z"/>
   <path class="fil0" d="M2.1972 2.1189c0.0159,0.0635 -0.0228,0.128 -0.0863,0.1439 -0.0635,0.0159 -0.128,-0.0228 -0.1439,-0.0863l-0.1052 -0.4199c-0.0159,-0.0635 0.0228,-0.128 0.0863,-0.1439 0.0635,-0.0159 0.128,0.0228 0.1439,0.0863l0.1052 0.4199z"/>
   <path class="fil0" d="M0.6379 3.1172c0.0545,0.0361 0.0695,0.1097 0.0334,0.1642 -0.0361,0.0545 -0.1097,0.0695 -0.1642,0.0334l-0.3684 -0.245c-0.0545,-0.0361 -0.0695,-0.1097 -0.0334,-0.1642 0.0361,-0.0545 0.1097,-0.0695 0.1642,-0.0334l0.3684 0.245z"/>
  </g>
 </g>
</svg>
