<svg width="42" height="42" viewBox="0 0 42 42" fill="none" xmlns="http://www.w3.org/2000/svg">
<path d="M23.8761 5.30108L22.3199 5.07763L21.6256 3.66509C21.5618 3.54538 21.4421 3.46558 21.3064 3.46558C21.1708 3.46558 21.0431 3.54538 20.9872 3.66509L20.2929 5.06965L18.7367 5.30108C18.601 5.31704 18.4893 5.4128 18.4494 5.54847C18.4095 5.67616 18.4414 5.81981 18.5372 5.91557L19.6624 7.00889L19.3991 8.5571C19.3752 8.69277 19.431 8.82843 19.5427 8.90824C19.6545 8.98804 19.7981 8.99602 19.9178 8.93218L21.3064 8.20596L22.695 8.93218C22.8147 8.99602 22.9664 8.98006 23.0701 8.90824C23.1818 8.82843 23.2377 8.69277 23.2137 8.5571L22.9504 7.00889L24.0756 5.91557C24.1714 5.81981 24.2113 5.67616 24.1634 5.54847C24.1235 5.4128 24.0118 5.31704 23.8761 5.30108ZM22.312 6.62583C22.2242 6.70564 22.1922 6.82534 22.2082 6.94505L22.3838 7.95857L21.474 7.47974C21.3703 7.42388 21.2426 7.42388 21.1388 7.47974L20.2291 7.95857L20.4046 6.94505C20.4286 6.82534 20.3887 6.71362 20.3009 6.62583L19.5667 5.90759L20.5882 5.75596C20.7079 5.74 20.8037 5.66818 20.8595 5.55645L21.3144 4.63072L21.7693 5.55645C21.8251 5.6602 21.9209 5.73202 22.0406 5.75596L23.0621 5.90759L22.312 6.62583Z" fill="black"/>
<path d="M26.27 9.88991L27.8342 9.95375L28.6721 11.2785C28.736 11.3822 28.8477 11.4461 28.9754 11.4461C28.9913 11.4461 28.9993 11.4461 29.0153 11.4461C29.1509 11.4301 29.2627 11.3423 29.3105 11.2147L29.8532 9.74626L31.3775 9.3632C31.5132 9.33127 31.6089 9.22753 31.6408 9.09186C31.6728 8.95619 31.6169 8.82053 31.5131 8.73274L30.2842 7.75913L30.3879 6.19496C30.3959 6.05929 30.332 5.9316 30.2123 5.85978C30.0926 5.78796 29.949 5.79594 29.8373 5.87574L28.5364 6.74561L27.076 6.16304C27.0361 6.14708 26.9882 6.1391 26.9404 6.1391C26.8526 6.1391 26.7648 6.17102 26.7009 6.23486C26.5972 6.33063 26.5573 6.4663 26.5972 6.60196L27.0202 8.11027L26.0146 9.31531C25.9268 9.41906 25.9029 9.56271 25.9588 9.69039C26.0146 9.80212 26.1343 9.88193 26.27 9.88991ZM27.6825 8.40554C27.7544 8.31776 27.7863 8.19007 27.7544 8.07834L27.475 7.08877L28.4327 7.47183C28.5444 7.51173 28.6641 7.50375 28.7679 7.43991L29.6218 6.86532L29.5579 7.89479C29.55 8.0145 29.5978 8.12623 29.6936 8.19805L30.4996 8.83649L29.5021 9.09186C29.3904 9.12378 29.2946 9.20359 29.2547 9.31531L28.8956 10.2809L28.3449 9.41108C28.2811 9.30733 28.1773 9.25147 28.0576 9.24349L27.0281 9.20359L27.6825 8.40554Z" fill="black"/>
<path d="M36.4134 15.5081L35.8308 14.0476L36.7007 12.7468C36.7805 12.6351 36.7805 12.4835 36.7167 12.3718C36.6448 12.252 36.5172 12.1802 36.3815 12.1962L34.8173 12.2999L33.8437 11.0709C33.7719 10.9832 33.6681 10.9353 33.5644 10.9353C33.5404 10.9353 33.5165 10.9353 33.4846 10.9433C33.3489 10.9752 33.2452 11.0709 33.2132 11.2066L32.8302 12.7309L31.3618 13.2735C31.2341 13.3214 31.1463 13.4411 31.1303 13.5768C31.1144 13.7125 31.1782 13.8481 31.2979 13.92L32.6227 14.7579L32.6865 16.3221C32.6945 16.4577 32.7743 16.5774 32.902 16.6333C33.0217 16.6892 33.1733 16.6652 33.2771 16.5854L34.4821 15.5799L35.9904 16.0029C36.1261 16.0428 36.2618 16.0029 36.3575 15.8991C36.4374 15.7794 36.4693 15.6358 36.4134 15.5081ZM35.0966 14.1354L35.4797 15.0931L34.4901 14.8138C34.3784 14.7818 34.2507 14.8058 34.1629 14.8856L33.3729 15.548L33.333 14.5185C33.325 14.3988 33.2691 14.295 33.1654 14.2312L32.2955 13.6805L33.2611 13.3214C33.3729 13.2815 33.4527 13.1858 33.4846 13.074L33.74 12.0765L34.3784 12.8825C34.4502 12.9783 34.5619 13.0261 34.6817 13.0182L35.7111 12.9543L35.1365 13.8082C35.0647 13.904 35.0567 14.0317 35.0966 14.1354Z" fill="black"/>
<path d="M35.5596 22.9057L36.6529 24.031C36.7168 24.1028 36.8125 24.1427 36.9083 24.1427C36.9482 24.1427 36.9801 24.1347 37.02 24.1267C37.1477 24.0868 37.2435 23.9751 37.2674 23.8394L37.4909 22.2833L38.8954 21.589C39.0151 21.5251 39.0949 21.4054 39.0949 21.2697C39.0949 21.1341 39.0151 21.0064 38.8954 20.9505L37.4909 20.2562L37.2674 18.7C37.2515 18.5644 37.1557 18.4526 37.02 18.4127C36.8923 18.3728 36.7487 18.4048 36.6529 18.5005L35.5596 19.6258L34.0114 19.3624C33.8757 19.3385 33.7401 19.3943 33.6603 19.5061C33.5804 19.6178 33.5725 19.7614 33.6363 19.8811L34.3625 21.2697L33.6363 22.6583C33.5725 22.778 33.5804 22.9217 33.6603 23.0334C33.7401 23.1451 33.8757 23.201 34.0114 23.1771L35.5596 22.9057ZM35.0888 21.0942L34.6099 20.1844L35.6234 20.36C35.7431 20.3839 35.8629 20.344 35.9427 20.2562L36.6609 19.522L36.8125 20.5435C36.8285 20.6632 36.9003 20.759 37.012 20.8148L37.9378 21.2697L37.012 21.7246C36.9083 21.7805 36.8365 21.8763 36.8125 21.996L36.6609 23.0175L35.9427 22.2833C35.8629 22.2034 35.7431 22.1635 35.6234 22.1795L34.6099 22.3551L35.0888 21.4453C35.1446 21.3256 35.1446 21.1979 35.0888 21.0942Z" fill="black"/>
<path d="M33.8429 31.469L34.8165 30.24L36.3807 30.3438C36.5163 30.3518 36.644 30.2879 36.7158 30.1682C36.7877 30.0485 36.7797 29.9049 36.6999 29.7931L35.83 28.4923L36.4126 27.0319C36.4605 26.9042 36.4365 26.7606 36.3487 26.6568C36.253 26.5531 36.1173 26.5132 35.9816 26.5531L34.4733 26.976L33.2683 25.9705C33.2045 25.9146 33.1246 25.8907 33.0369 25.8907C32.989 25.8907 32.9411 25.8987 32.8932 25.9226C32.7655 25.9785 32.6857 26.0982 32.6777 26.2338L32.6139 27.798L31.2891 28.636C31.1694 28.7078 31.1056 28.8435 31.1216 28.9791C31.1375 29.1148 31.2253 29.2345 31.353 29.2824L32.8214 29.825L33.2045 31.3493C33.2364 31.485 33.3401 31.5807 33.4758 31.6127C33.6274 31.6286 33.7631 31.5728 33.8429 31.469ZM33.4758 29.4579C33.4439 29.3462 33.3641 29.2505 33.2523 29.2106L32.2867 28.8514L33.1566 28.3008C33.2603 28.2369 33.3162 28.1332 33.3242 28.0135L33.3641 26.984L34.1541 27.6464C34.2419 27.7182 34.3696 27.7501 34.4813 27.7182L35.4709 27.4389L35.0878 28.3965C35.0479 28.5083 35.0559 28.628 35.1198 28.7317L35.6944 29.5856L34.6649 29.5218C34.5452 29.5138 34.4334 29.5617 34.3616 29.6575L33.7232 30.4635L33.4758 29.4579Z" fill="black"/>
<path d="M31.6406 33.4481C31.6087 33.3125 31.5129 33.2087 31.3773 33.1768L29.853 32.7937L29.3103 31.3253C29.2624 31.1977 29.1507 31.1099 29.0071 31.0939C28.8714 31.0779 28.7357 31.1418 28.6639 31.2615L27.826 32.5863L26.2618 32.6501C26.1261 32.6581 26.0064 32.7379 25.9506 32.8656C25.8947 32.9933 25.9107 33.1369 25.9984 33.2407L27.004 34.4457L26.581 35.954C26.5411 36.0897 26.581 36.2253 26.6848 36.3211C26.7885 36.4169 26.9322 36.4408 27.0598 36.3849L28.5203 35.8024L29.8211 36.6722C29.9328 36.7441 30.0844 36.752 30.1962 36.6882C30.3159 36.6244 30.3877 36.4887 30.3717 36.353L30.268 34.7889L31.497 33.8152C31.6247 33.7195 31.6725 33.5838 31.6406 33.4481ZM29.6854 34.326C29.5896 34.3978 29.5418 34.5095 29.5497 34.6293L29.6136 35.6587L28.7597 35.0841C28.6639 35.0203 28.5362 35.0043 28.4245 35.0522L27.4668 35.4353L27.7462 34.4457C27.7781 34.334 27.7541 34.2063 27.6743 34.1185L27.012 33.3284L28.0414 33.2885C28.1611 33.2806 28.2649 33.2247 28.3287 33.1209L28.8794 32.2511L29.2385 33.2167C29.2784 33.3284 29.3742 33.4082 29.4859 33.4402L30.4834 33.6955L29.6854 34.326Z" fill="black"/>
<path d="M23.8757 37.2229C24.0114 37.2069 24.1231 37.1111 24.163 36.9755C24.2029 36.8478 24.171 36.7041 24.0752 36.6084L22.95 35.515L23.2133 33.9668C23.2373 33.8312 23.1814 33.6955 23.0697 33.6157C22.958 33.5359 22.8143 33.5279 22.6946 33.5918L21.306 34.318L19.9174 33.5918C19.8615 33.5678 19.8057 33.5519 19.7498 33.5519C19.678 33.5519 19.5982 33.5758 19.5423 33.6237C19.4306 33.7035 19.3747 33.8392 19.3987 33.9748L19.662 35.523L18.5368 36.6163C18.441 36.7121 18.4011 36.8558 18.449 36.9835C18.4889 37.1111 18.6006 37.2069 18.7363 37.2308L20.2925 37.4543L20.9868 38.8589C21.0506 38.9786 21.1703 39.0584 21.306 39.0584C21.4417 39.0584 21.5694 38.9786 21.6252 38.8589L22.3195 37.4543L23.8757 37.2229ZM21.7609 36.9675L21.306 37.8932L20.8511 36.9675C20.7953 36.8637 20.6995 36.7919 20.5798 36.768L19.5583 36.6163L20.2925 35.8981C20.3803 35.8183 20.4122 35.6986 20.3962 35.5789L20.2207 34.5654L21.1304 35.0442C21.2342 35.1001 21.3619 35.1001 21.4656 35.0442L22.3754 34.5654L22.1998 35.5789C22.1759 35.6986 22.2158 35.8103 22.3036 35.8981L23.0378 36.6163L22.0163 36.768C21.9125 36.7839 21.8167 36.8558 21.7609 36.9675Z" fill="black"/>
<path d="M16.0303 35.9378L15.6073 34.4295L16.6129 33.2245C16.7007 33.1208 16.7246 32.9771 16.6608 32.8494C16.6049 32.7217 16.4852 32.6419 16.3495 32.6339L14.7854 32.5701L13.9474 31.2453C13.8836 31.1416 13.7639 31.0778 13.6442 31.0778C13.6282 31.0778 13.6202 31.0778 13.6043 31.0778C13.4686 31.0937 13.3569 31.1815 13.309 31.3092L12.7663 32.7776L11.242 33.1607C11.1064 33.1926 11.0106 33.2963 10.9787 33.432C10.9468 33.5677 11.0026 33.7033 11.1064 33.7911L12.3354 34.7647L12.2316 36.3289C12.2236 36.4646 12.2875 36.5922 12.4072 36.6641C12.5269 36.7279 12.6785 36.7279 12.7902 36.6481L14.0911 35.7782L15.5515 36.3608C15.6792 36.4087 15.8228 36.3848 15.9266 36.297C16.0223 36.2092 16.0622 36.0735 16.0303 35.9378ZM14.929 34.1183C14.8572 34.2061 14.8253 34.3338 14.8572 34.4455L15.1365 35.4351L14.1788 35.052C14.0671 35.0041 13.9474 35.0201 13.8437 35.0839L12.9898 35.6585L13.0536 34.6291C13.0616 34.5093 13.0137 34.3976 12.9179 34.3258L12.1119 33.6874L13.1095 33.432C13.2212 33.4001 13.317 33.3203 13.3569 33.2085L13.716 32.2429L14.2666 33.1128C14.3305 33.2165 14.4342 33.2724 14.5539 33.2804L15.5834 33.3203L14.929 34.1183Z" fill="black"/>
<path d="M9.11993 31.5968C9.2556 31.5649 9.35934 31.4691 9.39127 31.3334L9.77433 29.8092L11.2427 29.2665C11.3704 29.2186 11.4582 29.0989 11.4742 28.9632C11.4901 28.8276 11.4263 28.6919 11.3066 28.6201L9.98182 27.7821L9.91798 26.218C9.91 26.0823 9.83019 25.9626 9.7025 25.9067C9.57482 25.8509 9.43117 25.8748 9.32742 25.9546L8.13834 26.9681L6.63003 26.5452C6.49436 26.5053 6.3587 26.5452 6.26293 26.6489C6.16717 26.7527 6.14323 26.8963 6.19909 27.024L6.78166 28.4844L5.90381 29.7852C5.82401 29.8969 5.82401 30.0486 5.88785 30.1603C5.95968 30.28 6.08736 30.3518 6.22303 30.3359L7.7872 30.2321L8.76081 31.4611C8.8486 31.5728 8.98426 31.6287 9.11993 31.5968ZM8.24208 29.6416C8.17026 29.5458 8.05853 29.4979 7.93883 29.5059L6.90935 29.5698L7.48394 28.7158C7.54778 28.6201 7.56374 28.4924 7.51586 28.3807L7.1328 27.423L8.12238 27.7023C8.2341 27.7342 8.36179 27.7103 8.44957 27.6305L9.23964 26.9681L9.27954 27.9976C9.28752 28.1173 9.34338 28.2211 9.44713 28.2849L10.317 28.8355L9.35136 29.1947C9.23964 29.2346 9.15983 29.3303 9.12791 29.4421L8.87254 30.4396L8.24208 29.6416Z" fill="black"/>
<path d="M5.34527 18.6924L5.12182 20.2486L3.70928 20.9429C3.58957 21.0067 3.50977 21.1264 3.50977 21.2621C3.50977 21.3977 3.58957 21.5254 3.70928 21.5813L5.11383 22.2756L5.33729 23.8318C5.35325 23.9674 5.44901 24.0792 5.58468 24.1191C5.71237 24.159 5.85602 24.1271 5.95178 24.0313L7.0451 22.906L8.59331 23.1694C8.72898 23.1933 8.86464 23.1375 8.94445 23.0258C9.02425 22.914 9.03223 22.7704 8.96839 22.6507L8.24217 21.2621L8.96839 19.8735C9.03223 19.7538 9.02425 19.6101 8.94445 19.4984C8.86464 19.3867 8.72898 19.3308 8.59331 19.3547L7.0451 19.6181L5.95178 18.4929C5.87996 18.421 5.79217 18.3811 5.69641 18.3811C5.65651 18.3811 5.62458 18.3891 5.58468 18.3971C5.45699 18.445 5.36123 18.5567 5.34527 18.6924ZM5.80015 20.5359L5.95178 19.5144L6.67002 20.2486C6.74983 20.3363 6.86953 20.3683 6.98924 20.3523L8.00276 20.1767L7.52393 21.0865C7.46807 21.1903 7.46807 21.3179 7.52393 21.4217L8.00276 22.3315L6.98924 22.1559C6.86953 22.1319 6.75781 22.1718 6.67002 22.2596L5.95178 22.9938L5.80015 21.9723C5.78419 21.8526 5.71237 21.7569 5.60064 21.701L4.68289 21.2621L5.60862 20.8072C5.71237 20.7513 5.78419 20.6556 5.80015 20.5359Z" fill="black"/>
<path d="M9.34427 16.5615C9.44802 16.6493 9.59965 16.6652 9.71935 16.6174C9.84704 16.5615 9.92685 16.4418 9.93483 16.3061L9.99867 14.7419L11.3234 13.904C11.4431 13.8322 11.507 13.6965 11.491 13.5608C11.4751 13.4252 11.3873 13.3055 11.2596 13.2576L9.79118 12.7149L9.40812 11.1907C9.37619 11.055 9.27245 10.9592 9.13678 10.9273C9.00111 10.8954 8.86545 10.9512 8.77766 11.055L7.80405 12.284L6.23988 12.1802C6.10421 12.1722 5.97653 12.2361 5.9047 12.3558C5.83288 12.4755 5.84086 12.6192 5.92066 12.7309L6.79053 14.0397L6.20796 15.5001C6.16008 15.6278 6.18402 15.7714 6.2718 15.8752C6.36757 15.9789 6.50324 16.0188 6.6389 15.9789L8.14721 15.556L9.34427 16.5615ZM7.13369 15.0931L7.51675 14.1354C7.55665 14.0237 7.54867 13.904 7.48483 13.8003L6.91024 12.9463L7.93972 13.0102C8.05942 13.0182 8.17115 12.9703 8.24297 12.8745L8.88141 12.0685L9.13678 13.0661C9.1687 13.1778 9.24851 13.2735 9.36023 13.3134L10.3259 13.6726L9.456 14.2232C9.35225 14.2871 9.29639 14.3908 9.28841 14.5105L9.24851 15.54L8.45844 14.8776C8.37066 14.8058 8.24297 14.7739 8.13125 14.8058L7.13369 15.0931Z" fill="black"/>
<path d="M10.9716 9.07589C11.0035 9.21156 11.0993 9.31531 11.235 9.34723L12.7592 9.73029L13.3019 11.1987C13.3498 11.3264 13.4695 11.4142 13.5972 11.4301C13.7249 11.4461 13.8685 11.3822 13.9403 11.2625L14.7783 9.93778L16.3425 9.87394C16.4781 9.86596 16.5978 9.78615 16.6537 9.65846C16.7096 9.53078 16.6936 9.38713 16.6058 9.28338L15.6003 8.0943L16.0232 6.58599C16.0631 6.45033 16.0232 6.31466 15.9195 6.21889C15.8158 6.12313 15.6721 6.09919 15.5444 6.15505L14.084 6.73762L12.7832 5.85977C12.7193 5.81987 12.6555 5.79593 12.5837 5.79593C12.5198 5.79593 12.464 5.81189 12.4001 5.84381C12.2804 5.91564 12.2086 6.04332 12.2246 6.17899L12.3283 7.74316L11.0993 8.71677C10.9876 8.80456 10.9397 8.94022 10.9716 9.07589ZM12.9268 8.19804C13.0226 8.12622 13.0705 8.01449 13.0625 7.89479L12.9987 6.86531L13.8526 7.4399C13.9483 7.50374 14.076 7.5197 14.1877 7.47182L15.1454 7.08876L14.8661 8.07834C14.8342 8.19006 14.8581 8.31775 14.9379 8.40553L15.5923 9.1956L14.5628 9.2355C14.4431 9.24348 14.3394 9.29934 14.2755 9.40309L13.7249 10.273L13.3658 9.30732C13.3259 9.1956 13.2301 9.11579 13.1184 9.08387L12.1208 8.8285L12.9268 8.19804Z" fill="black"/>
</svg>
