<svg width="37" height="37" viewBox="0 0 37 37" fill="none" xmlns="http://www.w3.org/2000/svg">
<g clip-path="url(#clip0)">
<path d="M10.7051 19.1583C9.99673 17.9991 8.56713 17.524 7.30569 18.0284C6.89534 18.1926 6.57339 18.5067 6.39932 18.913C6.22526 19.3192 6.21972 19.769 6.38389 20.1793L9.33914 27.5674C9.44705 27.8372 9.75314 27.9686 10.0231 27.8606C10.2929 27.7527 10.4241 27.4464 10.3162 27.1766L7.36098 19.7885C7.3012 19.6391 7.30324 19.4755 7.36659 19.3276C7.42994 19.1797 7.54711 19.0654 7.69654 19.0056C8.47971 18.6925 9.36728 18.9874 9.8071 19.707L13.1048 25.1034C14.2959 27.0524 14.9254 29.2899 14.9254 31.5739V36.3703C14.9254 36.6609 15.161 36.8965 15.4516 36.8965C15.7422 36.8965 15.9778 36.6609 15.9778 36.3703V31.5739C15.9778 29.096 15.2948 26.6688 14.0027 24.5545L10.7051 19.1583Z" fill="black" stroke="#F4E9EC" stroke-width="0.224505"/>
<path d="M5.13999 23.3873C4.49475 21.8548 4.1676 20.2347 4.1676 18.5719V5.99945C4.1676 5.66936 4.43616 5.40087 4.76619 5.40087C5.71647 5.40087 6.48954 6.17401 6.48954 7.12422V16.1225C6.48954 16.4131 6.72513 16.6487 7.01572 16.6487C7.30632 16.6487 7.54191 16.4131 7.54191 16.1225V7.12422C7.54191 6.21161 7.09907 5.40066 6.41714 4.8944V4.31223C6.41714 3.98214 6.6857 3.71364 7.01572 3.71364C7.96601 3.71364 8.73915 4.48678 8.73915 5.437V16.1225C8.73915 16.4131 8.97474 16.6487 9.26533 16.6487C9.55593 16.6487 9.79152 16.4131 9.79152 16.1225V7.73284C10.4852 7.9558 10.9887 8.60701 10.9887 9.37376V17.8097C10.9887 18.1003 11.2243 18.3359 11.5149 18.3359C11.8055 18.3359 12.0411 18.1003 12.0411 17.8097V9.37383C12.0411 8.02322 11.0712 6.89537 9.79152 6.64876V5.43707C9.79152 3.90651 8.54629 2.66135 7.01572 2.66135C6.10536 2.66135 5.36477 3.402 5.36477 4.3123V4.41424C5.17184 4.37165 4.97168 4.3485 4.76619 4.3485C3.85582 4.3485 3.11523 5.08916 3.11523 5.99945V18.572C3.11523 20.3758 3.47016 22.1333 4.17013 23.7957L6.95048 30.3991C7.391 31.4453 7.61438 32.5514 7.61438 33.6867V36.3687C7.61438 36.6593 7.84997 36.8949 8.14056 36.8949C8.43116 36.8949 8.66675 36.6593 8.66675 36.3687V33.6867C8.66675 32.4103 8.41565 31.1668 7.92034 29.9906L5.13999 23.3873Z" fill="black" stroke="#F4E9EC" stroke-width="0.224505"/>
<path d="M22.385 10.379C22.385 9.09732 22.2009 7.82009 21.8377 6.58265C21.7559 6.30377 21.4634 6.14395 21.1847 6.22597C20.9058 6.30777 20.7461 6.60019 20.828 6.879C20.9046 7.13977 20.9714 7.40259 21.0306 7.6668L19.0107 9.68657V7.12553C19.0107 6.83494 18.7751 6.59935 18.4845 6.59935C18.194 6.59935 17.9584 6.83494 17.9584 7.12553V9.6865L15.9386 7.66673C16.3602 5.78966 17.2188 3.98766 18.4845 2.34218C19.0502 3.07806 19.5389 3.85064 19.9409 4.64567C20.0721 4.90504 20.3887 5.00901 20.648 4.87775C20.9073 4.74662 21.0112 4.43007 20.8801 4.1707C20.3491 3.12079 19.6789 2.10918 18.8881 1.16388C18.788 1.04447 18.6403 0.975433 18.4845 0.975433C18.3287 0.975433 18.1808 1.04447 18.0809 1.16402C15.7932 3.89863 14.584 7.08505 14.584 10.379C14.584 13.6132 15.7505 16.7436 17.9584 19.4445V26.247C17.9584 26.5375 18.194 26.7731 18.4845 26.7731C18.7751 26.7731 19.0107 26.5375 19.0107 26.247V19.4445C21.2185 16.7435 22.385 13.6132 22.385 10.379ZM19.0107 14.6547L21.1451 12.5202C20.8269 14.3275 20.1063 16.0737 19.0107 17.6878V14.6547ZM21.2468 8.93869C21.3029 9.41674 21.3327 9.89746 21.3327 10.379C21.3327 10.5377 21.3292 10.696 21.3231 10.8541L19.0107 13.1664V11.1748L21.2468 8.93869ZM17.9583 11.1748V13.1663L15.646 10.854C15.6399 10.6959 15.6364 10.5376 15.6364 10.379C15.6364 9.89592 15.6654 9.4152 15.7215 8.93799L17.9583 11.1748ZM15.8238 12.5201L17.9583 14.6546V17.6877C16.8626 16.0737 16.142 14.3275 15.8238 12.5201Z" fill="black" stroke="#F4E9EC" stroke-width="0.224505"/>
<path d="M30.5716 18.912C30.3975 18.5057 30.0756 18.1916 29.6653 18.0275C28.4039 17.523 26.9743 17.9981 26.2659 19.1574L22.9682 24.5536C21.6761 26.6679 20.9932 29.0951 20.9932 31.573V36.3694C20.9932 36.66 21.2288 36.8955 21.5193 36.8955C21.8099 36.8955 22.0455 36.66 22.0455 36.3694V31.573C22.0455 29.2888 22.6751 27.0514 23.8661 25.1024L27.1639 19.7061C27.6037 18.9864 28.4913 18.6913 29.2744 19.0046C29.4238 19.0643 29.541 19.1787 29.6043 19.3265C29.6677 19.4744 29.6697 19.6381 29.6099 19.7874L26.6547 27.1755C26.5467 27.4454 26.678 27.7516 26.9478 27.8595C27.2176 27.9675 27.5238 27.8361 27.6318 27.5664L30.587 20.1783C30.7512 19.768 30.7457 19.3182 30.5716 18.912Z" fill="black" stroke="#F4E9EC" stroke-width="0.224505"/>
<path d="M32.2046 4.34984C31.999 4.34984 31.7989 4.373 31.606 4.41558V4.31364C31.606 3.40327 30.8653 2.66269 29.955 2.66269C28.4245 2.66269 27.1792 3.90792 27.1792 5.43841V6.65011C25.8995 6.89678 24.9297 8.02457 24.9297 9.37517V17.8111C24.9297 18.1017 25.1653 18.3373 25.4559 18.3373C25.7465 18.3373 25.9821 18.1017 25.9821 17.8111V9.37517C25.9821 8.60835 26.4856 7.95721 27.1792 7.73425V16.1239C27.1792 16.4145 27.4148 16.6501 27.7054 16.6501C27.996 16.6501 28.2316 16.4145 28.2316 16.1239V5.43841C28.2316 4.48812 29.0047 3.71506 29.955 3.71506C30.2851 3.71506 30.5536 3.98362 30.5536 4.31364V4.89581C29.8717 5.40207 29.4288 6.21302 29.4288 7.12564V16.1239C29.4288 16.4145 29.6644 16.6501 29.955 16.6501C30.2456 16.6501 30.4812 16.4145 30.4812 16.1239V7.12556C30.4812 6.17528 31.2543 5.40221 32.2046 5.40221C32.5346 5.40221 32.8031 5.67077 32.8031 6.0008V18.5733C32.8031 20.2361 32.4759 21.8562 31.8308 23.3887L29.0504 29.992C28.5551 31.1683 28.304 32.4118 28.304 33.6881V36.3701C28.304 36.6606 28.5396 36.8962 28.8302 36.8962C29.1208 36.8962 29.3564 36.6606 29.3564 36.3701V33.688C29.3564 32.5527 29.5797 31.4466 30.0203 30.4003L32.8006 23.7969C33.5006 22.1345 33.8555 20.377 33.8555 18.5732V6.0008C33.8555 5.09043 33.1149 4.34984 32.2046 4.34984Z" fill="black" stroke="#F4E9EC" stroke-width="0.224505"/>
</g>
<defs>
<clipPath id="clip0">
<rect width="35.9208" height="35.9208" fill="white" transform="translate(0.525391 0.975281)"/>
</clipPath>
</defs>
</svg>
