<svg width="21" height="21" viewBox="0 0 21 21" fill="none" xmlns="http://www.w3.org/2000/svg">
<path d="M16.4723 0.754395H5.0757C2.77954 0.754395 0.910156 2.62083 0.910156 4.91336V16.298C0.910156 18.5905 2.77954 20.457 5.0757 20.457H16.4783C18.7745 20.457 20.6439 18.5905 20.6439 16.298V4.91936C20.6439 2.62083 18.7745 0.754395 16.4723 0.754395ZM19.6401 16.298C19.6401 18.0384 18.2215 19.4547 16.4783 19.4547H5.0757C3.33254 19.4547 1.91397 18.0384 1.91397 16.298V4.91936C1.91397 3.17896 3.33254 1.76263 5.0757 1.76263H16.4783C18.2215 1.76263 19.6401 3.17896 19.6401 4.91936V16.298Z" fill="none"/>
<path d="M10.7724 5.42944C7.91117 5.42944 5.58496 7.752 5.58496 10.6087C5.58496 13.4654 7.91117 15.7879 10.7724 15.7879C13.6335 15.7879 15.9597 13.4654 15.9597 10.6087C15.9597 7.752 13.6335 5.42944 10.7724 5.42944ZM10.7724 14.7857C8.46417 14.7857 6.58878 12.9132 6.58878 10.6087C6.58878 8.30413 8.46417 6.43168 10.7724 6.43168C13.0805 6.43168 14.9559 8.30413 14.9559 10.6087C14.9559 12.9132 13.0805 14.7857 10.7724 14.7857Z" fill="none"/>
<path d="M16.1227 5.93359C16.8629 5.93359 17.4631 5.33441 17.4631 4.59528C17.4631 3.85614 16.8629 3.25696 16.1227 3.25696C15.3824 3.25696 14.7822 3.85614 14.7822 4.59528C14.7822 5.33441 15.3824 5.93359 16.1227 5.93359Z" fill="black"/>
</svg>
