<svg width="23" height="19" viewBox="0 0 23 19" fill="none" xmlns="http://www.w3.org/2000/svg">
<path d="M19.7817 17.6287L22.8947 2.28118C23.0043 1.72961 22.9166 1.24371 22.6448 0.911017C22.4124 0.626479 22.0616 0.473267 21.6583 0.473267C21.4303 0.473267 21.1848 0.521419 20.9305 0.617725L1.9283 7.85812C1.04703 8.19519 0.924266 8.66359 0.933035 8.91748C0.941804 9.167 1.08649 9.63539 1.9853 9.91993L1.99407 9.92431L6.04529 11.08L8.21559 17.2741C8.47427 18.0139 9.04863 18.4736 9.71068 18.4736C10.1316 18.4736 10.5525 18.2941 10.9252 17.9527L13.5032 15.5844L17.1993 18.548L17.23 18.5743C17.5851 18.85 17.9666 18.9945 18.3349 18.9945C19.0451 18.9945 19.6151 18.4561 19.7817 17.6287ZM9.03109 16.9415L6.92656 10.9355L15.827 6.39604L10.228 12.3407C10.1754 12.3976 10.1404 12.4633 10.1228 12.5377L9.03109 16.9415ZM10.3333 17.3048C10.2982 17.3354 10.2631 17.3661 10.2237 17.3967L9.7326 17.7644L10.8112 13.4088L12.8192 15.0241L10.3333 17.3048ZM17.7737 17.887L11.1926 12.5946L18.2033 5.1572C18.348 4.99961 18.3612 4.76323 18.234 4.5925C18.1069 4.42178 17.8745 4.36925 17.686 4.46555L6.34343 10.2526L1.63016 8.90873L21.2418 1.43194C21.4347 1.35752 21.575 1.34439 21.6583 1.34439C21.7986 1.34439 21.9038 1.38379 21.9652 1.46258C22.066 1.58515 22.0923 1.82154 22.0353 2.10608L18.9224 17.4536C18.8347 17.8739 18.6242 18.119 18.3349 18.119C18.1639 18.119 17.971 18.0358 17.7737 17.887Z" fill="black"/>
</svg>
