<svg width="45" height="28" viewBox="0 0 45 28" fill="none" xmlns="http://www.w3.org/2000/svg">
<path d="M44.1954 24.9929C44.1954 25.2397 44.1954 25.4978 44.1954 25.7559C43.9036 26.4293 43.3537 26.6761 42.658 26.6986C42.4896 26.6986 42.3213 26.7098 42.153 26.7098C40.8961 26.7098 39.6281 26.6537 38.3712 26.7322C37.0919 26.8108 36.1269 26.3283 35.2965 25.4081C34.3202 24.342 33.3326 23.2871 32.3114 22.266C31.3351 21.2897 30.3027 20.3919 29.102 19.6962C28.5409 19.3707 27.9461 19.1351 27.2728 19.1912C26.7117 19.2361 26.4536 19.4381 26.3751 19.9991C26.319 20.347 26.2965 20.6949 26.2853 21.0428C26.2741 22.3894 26.2965 23.736 26.2853 25.0826C26.2741 25.8569 25.9823 26.2273 25.2417 26.4741C25.0397 26.5415 24.8377 26.5864 24.6245 26.62C22.9524 26.8332 21.2916 26.7435 19.6644 26.317C15.748 25.3183 12.5722 23.13 10.0024 20.0777C6.88276 16.3633 4.42518 12.2336 2.52869 7.76734C1.91149 6.29728 1.44017 4.80478 1.10352 3.27861C1.10352 3.03173 1.10352 2.77362 1.10352 2.51552C1.31673 1.83099 1.82171 1.58411 2.4838 1.58411C3.93142 1.57289 5.36781 1.58411 6.81543 1.57289C8.22938 1.56167 8.88025 1.427 9.62089 3.52549C10.5299 6.10651 11.6745 8.58654 13.066 10.9431C13.8403 12.2561 14.6819 13.5354 15.7368 14.6576C16.1071 15.0615 16.4999 15.4431 17.0273 15.6451C17.5884 15.8695 17.9812 15.6563 18.1383 15.0728C18.2056 14.8259 18.2168 14.579 18.2168 14.3209C18.228 11.9531 18.2393 9.58528 18.228 7.20625C18.2168 5.93818 17.8353 4.78233 16.9936 3.80603C16.8365 3.62648 16.6906 3.43571 16.5672 3.23372C16.1296 2.5043 16.5335 1.68511 17.3752 1.58411C17.5435 1.56167 17.7118 1.57289 17.8802 1.57289C19.5185 1.57289 21.1569 1.57289 22.8065 1.57289C23.5921 1.57289 24.3776 1.56167 25.1631 1.58411C25.7691 1.59533 26.0721 1.8871 26.2292 2.47064C26.319 2.81851 26.3078 3.16639 26.3078 3.51427C26.3078 6.38706 26.3078 9.25985 26.3078 12.1439C26.3078 12.4581 26.319 12.7611 26.3975 13.0641C26.5659 13.6813 26.9811 13.8945 27.5758 13.67C27.9798 13.5129 28.294 13.2436 28.6082 12.9631C29.6182 12.0765 30.415 11.0105 31.178 9.91071C32.7042 7.72246 33.9611 5.37709 35.0383 2.93073C35.4087 2.08909 36.0034 1.59533 36.9348 1.58411C38.6293 1.57289 40.3238 1.56167 42.0296 1.58411C43.1405 1.59533 43.5333 2.17887 43.2527 3.24494C42.9722 4.32224 42.4335 5.29854 41.8949 6.26362C40.436 8.84464 38.764 11.2798 37.0583 13.6925C36.2054 14.9044 36.2391 15.3196 37.2827 16.3857C37.3276 16.4306 37.3837 16.4867 37.4286 16.5316C38.36 17.4855 39.3139 18.4169 40.2004 19.4044C41.7153 21.1101 43.3313 22.7822 44.1954 24.9929Z" stroke="black" stroke-width="1.47821" stroke-miterlimit="10"/>
</svg>
